<?xml version="1.0" encoding="utf-8"?>
<!-- Generator: Adobe Illustrator 27.8.1, SVG Export Plug-In . SVG Version: 6.00 Build 0)  -->
<svg version="1.1" id="Layer_1" xmlns="http://www.w3.org/2000/svg" xmlns:xlink="http://www.w3.org/1999/xlink" x="0px" y="0px"
	 width="120px" height="86px" viewBox="0 0 120 86" style="enable-background:new 0 0 120 86;" xml:space="preserve">
<style type="text/css">
	.st0{fill:#C62C30;}
	.st1{fill:#ED1C24;}
</style>
<g>
	<g>
		<path class="st0" d="M36.7,72.2l-1.8,1c-0.4-0.7-0.9-1-1.6-1c-0.4,0-0.7,0.1-1,0.3C32.1,72.7,32,73,32,73.4c0,0.3,0.1,0.5,0.3,0.7
			s0.4,0.4,0.6,0.5s0.5,0.2,0.8,0.3c0.5,0.1,1,0.3,1.4,0.5s0.8,0.4,1.1,0.7c0.3,0.3,0.7,0.7,0.9,1.2s0.3,1,0.3,1.7s-0.3,1.4-0.7,1.9
			s-0.9,0.9-1.5,1.1s-1.2,0.3-1.9,0.3c-0.8,0-1.5-0.2-2.2-0.6s-1.3-1.1-1.7-2.2l1.8-1.1c0.3,0.6,0.6,1,1,1.3
			c0.4,0.3,0.8,0.4,1.2,0.4c0.5,0,0.8-0.1,1.1-0.4s0.5-0.6,0.5-1c0-0.5-0.1-0.9-0.5-1.2c-0.4-0.3-0.8-0.5-1.3-0.6
			c-2.3-0.6-3.3-1.8-3.3-3.4c0-1.1,0.4-1.9,1.1-2.5s1.6-0.9,2.6-0.9C34.9,70,36,70.7,36.7,72.2z"/>
		<path class="st0" d="M48,72.1l-1.5,1.4c-0.9-0.9-1.9-1.4-2.9-1.4c-1.1,0-2,0.4-2.6,1.2s-1,1.7-1,2.8c0,1.1,0.3,2,1,2.8
			c0.6,0.8,1.5,1.1,2.6,1.1c1.2,0,2.3-0.5,3.1-1.6l1.6,1.3c-1.4,1.6-2.9,2.4-4.7,2.4c-1.2,0-2.3-0.3-3.1-0.9c-0.9-0.6-1.6-1.3-2-2.2
			c-0.4-1-0.6-2-0.6-3c0-1.1,0.2-2.1,0.6-2.9c0.4-0.9,1.1-1.7,2-2.3c0.9-0.6,2-0.9,3.1-0.9C45.4,70,46.8,70.7,48,72.1z"/>
		<path class="st0" d="M56.4,72.2l-1.8,1c-0.4-0.7-0.9-1-1.6-1c-0.4,0-0.7,0.1-1,0.3c-0.3,0.2-0.4,0.5-0.4,0.9
			c0,0.3,0.1,0.5,0.3,0.7s0.4,0.4,0.6,0.5s0.5,0.2,0.8,0.3c0.5,0.1,1,0.3,1.4,0.5s0.8,0.4,1.1,0.7c0.3,0.3,0.7,0.7,0.9,1.2
			s0.3,1,0.3,1.7s-0.3,1.4-0.7,1.9s-0.9,0.9-1.5,1.1s-1.2,0.3-1.9,0.3c-0.8,0-1.5-0.2-2.2-0.6s-1.3-1.1-1.7-2.2l1.8-1.1
			c0.3,0.6,0.6,1,1,1.3s0.8,0.4,1.2,0.4c0.5,0,0.8-0.1,1.1-0.4s0.5-0.6,0.5-1c0-0.5-0.1-0.9-0.5-1.2c-0.4-0.3-0.8-0.5-1.3-0.6
			c-2.3-0.6-3.3-1.8-3.3-3.4c0-1.1,0.4-1.9,1.1-2.5c0.7-0.6,1.6-0.9,2.6-0.9C54.6,70,55.7,70.7,56.4,72.2z"/>
	</g>
	<g>
		<path class="st0" d="M86.4,77.8c0,1.2-0.4,2.6-1.7,2.6c-1.3,0-1.9-1.6-1.9-2.8c0-1.2,0.4-2.5,1.8-2.5
			C85.9,75.2,86.4,76.7,86.4,77.8z"/>
		<path class="st0" d="M89,67.1H61.7c-0.8,0-1.5,0.7-1.5,1.5v15.9c0,0.8,0.7,1.5,1.5,1.5H89c0.8,0,1.5-0.7,1.5-1.5V68.6
			C90.6,67.8,89.9,67.1,89,67.1z M70.4,82h-2.2v-4.4c0-0.9,0-1.4-0.1-1.7c-0.3-0.5-0.6-0.8-1.2-0.8c-0.7,0-1.3,0.4-1.6,1.1
			c-0.1,0.3-0.2,0.9-0.2,1.6v4.1h-2.2V70.5h2.2v3.7c0.6-0.5,1.7-0.8,2.8-0.8c1.1,0,2,0.7,2.4,2c0.1,0.3,0.1,0.9,0.1,1.6L70.4,82
			L70.4,82z M79.2,81.9h-2V81c-0.7,0.7-1.7,1.1-2.7,1.1c-1.8,0-2.8-1.3-2.8-3.2v-5.2h2.2v3.8c0,1.1,0,1.9,0.1,2.1
			c0.3,0.5,0.6,0.8,1.3,0.9c0.7,0,1.3-0.4,1.6-1.1c0.1-0.3,0.2-1,0.2-2.2v-3.5h2.2L79.2,81.9L79.2,81.9z M85.1,82.1
			c-0.9,0-1.6-0.3-2.5-0.8V82h-2V70.5h2.2l-0.1,3.7c0.5-0.5,1.7-0.8,2.6-0.7c0.2,0,0.5,0,0.6,0.1c1.9,0.4,2.7,2.1,2.8,4.1
			C88.6,79.7,87.6,81.9,85.1,82.1z"/>
	</g>
</g>
<g>
	<path class="st0" d="M61,34.8h-2c-0.5,0-0.9,0.4-1,0.9l-3.9,23.2c-0.1,0.6,0.4,1.2,1,1.2h9.7c0.6,0,1.1-0.6,1-1.2L62,35.7
		C61.9,35.2,61.5,34.8,61,34.8z"/>
	<path class="st0" d="M65.3,23.9l1,1.7c0.3,0.4,0.8,0.6,1.3,0.5l22-8.2c0.6-0.2,0.9-0.9,0.5-1.5L85.3,8c-0.3-0.6-1.1-0.7-1.6-0.3
		l-18.2,15C65.2,22.9,65.1,23.4,65.3,23.9z"/>
	<path class="st0" d="M53.7,25.5l1-1.7c0.3-0.4,0.2-1-0.2-1.3L36.3,7.6c-0.5-0.4-1.3-0.3-1.6,0.3l-4.8,8.4c-0.3,0.6-0.1,1.3,0.5,1.5
		l22,8.2C52.9,26.2,53.4,26,53.7,25.5z"/>
	<path class="st1" d="M41.7,28.1c0-0.6,0-1.3,0.1-1.9c0.1-0.6-0.3-1.1-0.8-1.3l-6.2-2.3c-0.7-0.3-1.6,0.2-1.7,1
		c-0.3,1.5-0.4,3-0.4,4.5c0,11.7,7.4,21.7,17.8,25.6c0.8,0.3,1.6-0.2,1.7-1l1.1-6.5c0.1-0.6-0.2-1.1-0.8-1.4
		C46.1,41.9,41.7,35.5,41.7,28.1z"/>
	<path class="st1" d="M85.3,22.6l-6.2,2.3c-0.5,0.2-0.9,0.7-0.8,1.3c0.1,0.6,0.1,1.3,0.1,1.9c0,7.4-4.4,13.8-10.8,16.7
		c-0.5,0.2-0.9,0.8-0.8,1.4l1.1,6.5c0.1,0.8,1,1.3,1.7,1C80,49.8,87.4,39.8,87.4,28.1c0-1.5-0.1-3.1-0.4-4.5
		C86.8,22.8,86,22.3,85.3,22.6z"/>
	<path class="st1" d="M60,0.7c-6.6,0-12.6,2.3-17.4,6.2c-0.6,0.5-0.6,1.5,0,2l5.1,4.2c0.5,0.4,1.1,0.4,1.6,0c3-2.2,6.7-3.5,10.7-3.5
		s7.7,1.3,10.7,3.5c0.5,0.3,1.1,0.3,1.6,0l5.1-4.2c0.6-0.5,0.6-1.5,0-2C72.6,3.1,66.6,0.7,60,0.7z"/>
</g>
</svg>
