<?xml version="1.0" encoding="utf-8"?>
<!-- Generator: Adobe Illustrator 27.8.1, SVG Export Plug-In . SVG Version: 6.00 Build 0)  -->
<svg version="1.1" id="Layer_1" xmlns="http://www.w3.org/2000/svg" xmlns:xlink="http://www.w3.org/1999/xlink" x="0px" y="0px"
	 viewBox="0 0 64 64" style="enable-background:new 0 0 64 64;" xml:space="preserve">
<style type="text/css">
	.st0{fill:#000000;}
</style>
<path class="st0" d="M33,36.4H31c-0.5,0-0.9,0.4-1,0.9l-3.9,23.2c-0.1,0.6,0.4,1.2,1,1.2h9.7c0.6,0,1.1-0.6,1-1.2L34,37.3
	C33.9,36.8,33.5,36.4,33,36.4z"/>
<path class="st0" d="M37.3,25.5l1,1.7c0.3,0.4,0.8,0.6,1.3,0.5l22-8.2c0.6-0.2,0.9-0.9,0.5-1.5l-4.8-8.4c-0.3-0.6-1.1-0.7-1.6-0.3
	l-18.2,15C37.2,24.5,37.1,25,37.3,25.5z"/>
<path class="st0" d="M25.7,27.1l1-1.7c0.3-0.4,0.2-1-0.2-1.3L8.3,9.2C7.8,8.8,7,8.9,6.7,9.5l-4.8,8.4c-0.3,0.6-0.1,1.3,0.5,1.5
	l22,8.2C24.9,27.8,25.4,27.6,25.7,27.1z"/>
<path class="st0" d="M13.7,29.7c0-0.6,0-1.3,0.1-1.9c0.1-0.6-0.3-1.1-0.8-1.3l-6.2-2.3c-0.7-0.3-1.6,0.2-1.7,1
	c-0.3,1.5-0.4,3-0.4,4.5c0,11.7,7.4,21.7,17.8,25.6c0.8,0.3,1.6-0.2,1.7-1l1.1-6.5c0.1-0.6-0.2-1.1-0.8-1.4
	C18.1,43.5,13.7,37.1,13.7,29.7z"/>
<path class="st0" d="M57.3,24.2l-6.2,2.3c-0.5,0.2-0.9,0.7-0.8,1.3c0.1,0.6,0.1,1.3,0.1,1.9c0,7.4-4.4,13.8-10.8,16.7
	c-0.5,0.2-0.9,0.8-0.8,1.4l1.1,6.5c0.1,0.8,1,1.3,1.7,1c10.4-3.9,17.8-13.9,17.8-25.6c0-1.5-0.1-3.1-0.4-4.5
	C58.8,24.4,58,23.9,57.3,24.2z"/>
<path class="st0" d="M32,2.3c-6.6,0-12.6,2.3-17.4,6.2c-0.6,0.5-0.6,1.5,0,2l5.1,4.2c0.5,0.4,1.1,0.4,1.6,0c3-2.2,6.7-3.5,10.7-3.5
	c4,0,7.7,1.3,10.7,3.5c0.5,0.3,1.1,0.3,1.6,0l5.1-4.2c0.6-0.5,0.6-1.5,0-2C44.6,4.7,38.6,2.3,32,2.3z"/>
</svg>
