<?xml version="1.0" encoding="utf-8"?>
<!-- Generator: Adobe Illustrator 27.8.1, SVG Export Plug-In . SVG Version: 6.00 Build 0)  -->
<svg version="1.1" id="Layer_1" xmlns="http://www.w3.org/2000/svg" xmlns:xlink="http://www.w3.org/1999/xlink" x="0px" y="0px"
	 viewBox="0 0 64 64" style="enable-background:new 0 0 64 64;" xml:space="preserve">
<style type="text/css">
	.st0{fill:none;stroke:#636363;stroke-width:5;stroke-linecap:round;stroke-linejoin:round;stroke-miterlimit:133.3333;}
</style>
<path id="file" class="st0" d="M35.3,2.7c-0.3,0-0.7,0-1.1,0H19.6c-3.7,0-5.5,0-6.9,0.7C11.5,4,10.5,5,9.9,6.2
	c-0.7,1.4-0.7,3.2-0.7,6.9v37.8c0,3.7,0,5.5,0.7,6.9c0.6,1.2,1.6,2.2,2.8,2.9c1.4,0.7,3.2,0.7,6.9,0.7h24.8c3.6,0,5.5,0,6.9-0.7
	c1.2-0.6,2.2-1.6,2.9-2.9c0.7-1.4,0.7-3.2,0.7-6.9V23.3c0-0.4,0-0.8,0-1.1 M35.3,2.7c0.9,0,1.5,0,2.1,0.2C38,3,38.6,3.3,39.2,3.6
	c0.7,0.4,1.2,1,2.3,2.1l10.2,10.2c1.1,1.1,1.7,1.7,2.1,2.3c0.4,0.6,0.6,1.2,0.8,1.9c0.1,0.6,0.2,1.2,0.2,2.1 M35.3,2.7v9.1
	c0,3.7,0,5.5,0.7,6.9c0.6,1.2,1.6,2.2,2.8,2.9c1.4,0.7,3.2,0.7,6.9,0.7h9.1 M54.8,22.2L54.8,22.2"/>
</svg>
