<?xml version="1.0" encoding="utf-8"?>
<!-- Generator: Adobe Illustrator 27.8.1, SVG Export Plug-In . SVG Version: 6.00 Build 0)  -->
<svg version="1.1" id="Layer_1" xmlns="http://www.w3.org/2000/svg" xmlns:xlink="http://www.w3.org/1999/xlink" x="0px" y="0px"
	 viewBox="0 0 64 64" style="enable-background:new 0 0 64 64;" xml:space="preserve">
<style type="text/css">
	.st0{fill:none;stroke:#A4A4A4;stroke-width:5;stroke-linejoin:round;stroke-miterlimit:133.3333;}
</style>
<path id="folder" class="st0" d="M51,19.9v-3.5c0-1.9-1.5-3.5-3.5-3.5H28.3c-0.9,0-1.8-0.4-2.4-1l-4.9-4.9c-0.6-0.6-1.5-1-2.4-1H6.1
	c-1.9,0-3.5,1.5-3.5,3.5V51c0,3.8,3.1,6.9,6.9,6.9h48.3c1.9,0,3.5-1.5,3.5-3.5V30.3c0-1.9-1.5-3.5-3.5-3.5h-38
	c-1.9,0-3.5,1.5-3.5,3.5V51c0,3.8-3.1,6.9-6.9,6.9l0,0"/>
</svg>
