<?xml version="1.0" encoding="utf-8"?>
<!-- Generator: Adobe Illustrator 27.8.1, SVG Export Plug-In . SVG Version: 6.00 Build 0)  -->
<svg version="1.1" id="Layer_1" xmlns="http://www.w3.org/2000/svg" xmlns:xlink="http://www.w3.org/1999/xlink" x="0px" y="0px"
	 viewBox="0 0 64 64" style="enable-background:new 0 0 64 64;" xml:space="preserve">
<style type="text/css">
	.st0{fill:none;stroke:#A4A4A4;stroke-width:5;stroke-linecap:round;stroke-linejoin:round;stroke-miterlimit:133.3333;}
</style>
<g id="prefab">
	<path class="st0" d="M25.4,57.9l4.3,2.4c0.8,0.5,1.2,0.7,1.7,0.8c0.4,0.1,0.8,0.1,1.2,0c0.4-0.1,0.9-0.3,1.7-0.8l4.3-2.4"/>
	<path class="st0" d="M12.3,50.4L8.2,48c-0.9-0.5-1.3-0.7-1.6-1.1c-0.3-0.3-0.5-0.7-0.6-1.1c-0.1-0.5-0.1-1-0.1-2v-4.6"/>
	<path class="st0" d="M5.8,24.3v-4.6c0-1,0-1.5,0.1-2c0.1-0.4,0.3-0.8,0.6-1.1c0.3-0.4,0.8-0.6,1.6-1.1l4.2-2.4"/>
	<path class="st0" d="M25.4,5.7l4.3-2.4c0.8-0.5,1.2-0.7,1.7-0.8c0.4-0.1,0.8-0.1,1.2,0c0.4,0.1,0.9,0.3,1.7,0.8l4.3,2.4"/>
	<path class="st0" d="M51.7,13.2l4.2,2.4c0.9,0.5,1.3,0.7,1.6,1.1c0.3,0.3,0.5,0.7,0.6,1.1c0.1,0.5,0.1,1,0.1,2v4.6"/>
	<path class="st0" d="M58.2,39.2v4.6c0,1,0,1.5-0.1,2c-0.1,0.4-0.3,0.8-0.6,1.1c-0.3,0.4-0.8,0.6-1.6,1.1l-4.2,2.4"/>
	<line class="st0" x1="25.4" y1="28.1" x2="32" y2="31.8"/>
	<line class="st0" x1="32" y1="31.8" x2="38.6" y2="28.1"/>
	<line class="st0" x1="32" y1="31.8" x2="32" y2="39.2"/>
	<line class="st0" x1="5.8" y1="16.9" x2="12.3" y2="20.6"/>
	<line class="st0" x1="51.7" y1="20.6" x2="58.2" y2="16.9"/>
	<line class="st0" x1="32" y1="54.1" x2="32" y2="61.6"/>
</g>
</svg>
