<?xml version="1.0" encoding="utf-8"?>
<!-- Generator: Adobe Illustrator 27.8.1, SVG Export Plug-In . SVG Version: 6.00 Build 0)  -->
<svg version="1.1" id="Layer_1" xmlns="http://www.w3.org/2000/svg" xmlns:xlink="http://www.w3.org/1999/xlink" x="0px" y="0px"
	 viewBox="0 0 64 64" style="enable-background:new 0 0 64 64;" xml:space="preserve">
<style type="text/css">
	.st0{fill:#2d2d2d;}
</style>
<path class="st0" d="M8.4,18c4-7.2,11.6-12.4,20-13.6c6-0.8,12,0.4,16.8,3.2c0.4,0.8-0.4,1.2-0.8,2c-1.6,1.6-2.8,3.6-4.4,5.6
	c-4-1.2-8-2-12-0.8c-4.4,0.8-8.4,3.6-10.8,7.2C14,20.4,11.2,19.2,8.4,18z"/>
<path class="st0" d="M48.8,8.8c0.8-0.8,1.6-2,2.8-2c2.4,1.6,4.8,4,6.4,6.4c-6,6-13.2,11.2-21.2,14C39.6,20.4,43.6,14,48.8,8.8z"/>
<path class="st0" d="M48.4,24c2.8-1.6,5.2-3.6,7.6-6c4.4,7.6,4.8,16.8,1.2,24.8c-2.4,5.2-6.4,10-11.2,12.4c-0.8-2.8-2.4-5.6-3.6-8.4
	c2.8-2.4,5.2-4.8,6.4-8C50.8,34.4,50.8,28.8,48.4,24z"/>
<path class="st0" d="M0,28c0.4-2.8,1.2-6,2.4-8.8c0.8-0.4,1.6,0,2.8,0.4C12.8,22,20,25.2,25.6,30.4C17.2,31.6,8.4,31.2,0,28z"/>
<path class="st0" d="M4.4,32c3.2,0.8,6,1.2,9.2,1.2c0.8,8.4,8,16.4,16.8,16.8c0.4,3.2,0.8,6.4,1.2,9.6c-6.4,0-12.8-2.4-17.6-6.8
	C8,48,4.8,40,4.4,32z"/>
<path class="st0" d="M33.6,38.4c3.6,3.6,6,8.4,8,12.8c1.6,3.2,2.4,6.8,3.2,10.4c-2.8,1.2-6,2.4-8.8,2C32.8,55.6,32.8,46.8,33.6,38.4
	z"/>
</svg>
