<?xml version="1.0" encoding="utf-8"?>
<!-- Generator: Adobe Illustrator 27.8.1, SVG Export Plug-In . SVG Version: 6.00 Build 0)  -->
<svg version="1.1" id="Layer_1" xmlns="http://www.w3.org/2000/svg" xmlns:xlink="http://www.w3.org/1999/xlink" x="0px" y="0px"
	 viewBox="0 0 64 64" style="enable-background:new 0 0 64 64;" xml:space="preserve">
<style type="text/css">
	.st0{fill:none;stroke:#A4A4A4;stroke-width:5;stroke-linecap:round;stroke-linejoin:round;stroke-miterlimit:10;}
</style>
<g id="tobj">
	<path class="st0" d="M5.4,2.6h53.2c1.6,0,2.9,1.3,2.9,2.9v53.2c0,1.6-1.3,2.9-2.9,2.9H5.4c-1.6,0-2.9-1.3-2.9-2.9V5.4
		C2.6,3.8,3.8,2.6,5.4,2.6z"/>
	<path class="st0" d="M5.4,2.6h23.7c1.6,0,2.9,1.3,2.9,2.9v13.9c0,1.6-1.3,2.9-2.9,2.9H5.4c-1.6,0-2.9-1.3-2.9-2.9V5.4
		C2.6,3.8,3.8,2.6,5.4,2.6z"/>
	<path class="st0" d="M20.1,22.2h23.7c1.6,0,2.9,1.3,2.9,2.9v13.9c0,1.6-1.3,2.9-2.9,2.9H20.1c-1.6,0-2.9-1.3-2.9-2.9V25.1
		C17.3,23.5,18.6,22.2,20.1,22.2z"/>
	<path class="st0" d="M5.4,41.8h23.7c1.6,0,2.9,1.3,2.9,2.9v13.9c0,1.6-1.3,2.9-2.9,2.9H5.4c-1.6,0-2.9-1.3-2.9-2.9V44.7
		C2.6,43.1,3.8,41.8,5.4,41.8z"/>
	<path class="st0" d="M34.9,2.6h23.7c1.6,0,2.9,1.3,2.9,2.9v13.9c0,1.6-1.3,2.9-2.9,2.9H34.9c-1.6,0-2.9-1.3-2.9-2.9V5.4
		C32,3.8,33.3,2.6,34.9,2.6z"/>
	<path class="st0" d="M34.9,41.8h23.7c1.6,0,2.9,1.3,2.9,2.9v13.9c0,1.6-1.3,2.9-2.9,2.9H34.9c-1.6,0-2.9-1.3-2.9-2.9V44.7
		C32,43.1,33.3,41.8,34.9,41.8z"/>
</g>
</svg>
