<?xml version="1.0" encoding="utf-8"?>
<!-- Generator: Adobe Illustrator 27.8.1, SVG Export Plug-In . SVG Version: 6.00 Build 0)  -->
<svg version="1.1" id="Layer_1" xmlns="http://www.w3.org/2000/svg" xmlns:xlink="http://www.w3.org/1999/xlink" x="0px" y="0px"
	 width="64px" height="64px" viewBox="0 0 64 64" style="enable-background:new 0 0 64 64;" xml:space="preserve">
<style type="text/css">
	.st0{fill:#000000;}
</style>
<path class="st0" d="M61.1,29.1H32c-1.6,0-2.9,1.3-2.9,2.9v29.1c0,1.6,1.3,2.9,2.9,2.9h29.1c1.6,0,2.9-1.3,2.9-2.9V32
	C64,30.4,62.7,29.1,61.1,29.1z M58.2,56.8c0,0.8-0.6,1.4-1.4,1.4H36.3c-0.8,0-1.4-0.6-1.4-1.4V36.3c0-0.8,0.6-1.4,1.4-1.4h20.5
	c0.8,0,1.4,0.6,1.4,1.4V56.8z"/>
<path class="st0" d="M2.8,34.9C1.2,34.8,0,33.4,0,31.8C0,26.6,0,9.7,0,2.9C0,1.3,1.3,0,2.9,0h28.9c1.6,0,3,1.2,3.1,2.8s-1.2,3-2.9,3
	H7.3c-0.8,0-1.4,0.6-1.4,1.4V32C5.8,33.7,4.4,35,2.8,34.9z"/>
<path class="st0" d="M46.5,14.5c1.7,0,3,1.4,2.9,3.1c-0.1,1.6-1.5,2.8-3.1,2.8H21.7c-0.8,0-1.4,0.6-1.4,1.4v24.6
	c0,1.6-1.2,3-2.8,3.1c-1.7,0.1-3.1-1.2-3.1-2.9V17.5c0-1.6,1.3-2.9,2.9-2.9h29.2V14.5z"/>
</svg>
