<?xml version="1.0" encoding="utf-8"?>
<!-- Generator: Adobe Illustrator 27.8.1, SVG Export Plug-In . SVG Version: 6.00 Build 0)  -->
<svg version="1.1" id="Layer_1" xmlns="http://www.w3.org/2000/svg" xmlns:xlink="http://www.w3.org/1999/xlink" x="0px" y="0px"
	 width="64px" height="64px" viewBox="0 0 64 64" style="enable-background:new 0 0 64 64;" xml:space="preserve">
<style type="text/css">
	.st0{fill:#000000;}
</style>
<path class="st0" d="M44.4,63.9H19.6c-4.1,0-6.1,0-8-1c0,0-0.1,0-0.1-0.1c-1.7-1-3-2.3-3.8-3.9c-1-1.9-1-4-1-8V13.1c0-4.1,0-6.1,1-8
	C8.5,3.4,9.9,2,11.6,1.2c1.9-1,4-1,8-1h15.7c1,0,1.8,0,2.7,0.3c0.9,0.2,1.6,0.6,2.3,0.9c0,0,0.1,0,0.1,0.1
	C41.3,1.9,55.3,16,55.9,16.8c0.6,0.9,0.9,1.8,1.1,2.6c0,0.1,0,0.2,0.1,0.3c0.1,0.5,0.2,1,0.2,1.7c0.1,0.2,0.1,29.5,0.1,29.5
	c0,4.1,0,6.1-1,8c-1,1.8-2.4,3.2-4,4C50.5,63.9,48.3,63.9,44.4,63.9z M13.9,58.5c0.9,0.4,2.6,0.4,5.7,0.4h24.8c3.1,0,4.9,0,5.8-0.4
	c0.7-0.4,1.4-1,1.8-1.9c0.4-0.8,0.4-2.5,0.4-5.7V24.8h-6.7c-4.1,0-6.1,0-8-1c0,0-0.1,0-0.1-0.1c-1.7-1-3-2.3-3.8-3.9c-1-1.9-1-4-1-8
	V5.2H19.6c-3.2,0-4.9,0-5.8,0.4c-0.7,0.4-1.3,1-1.7,1.7c-0.4,0.9-0.4,2.6-0.4,5.8v37.8c0,3.2,0,4.9,0.4,5.8
	C12.5,57.4,13.1,58,13.9,58.5z M40,19.4c0.9,0.4,2.6,0.4,5.7,0.4h6.1c0-0.1-14-14.1-14-14.1v6.1c0,3.2,0,4.9,0.4,5.8
	C38.6,18.3,39.2,18.9,40,19.4z"/>
</svg>
