<?xml version="1.0" encoding="utf-8"?>
<!-- Generator: Adobe Illustrator 27.8.1, SVG Export Plug-In . SVG Version: 6.00 Build 0)  -->
<svg version="1.1" id="Layer_1" xmlns="http://www.w3.org/2000/svg" xmlns:xlink="http://www.w3.org/1999/xlink" x="0px" y="0px"
	 width="64px" height="64px" viewBox="0 0 64 64" style="enable-background:new 0 0 64 64;" xml:space="preserve">
<style type="text/css">
	.st0{fill:#FFFFFF;}
</style>
<path class="st0" d="M57.8,60.4H9.5c0,0-0.1,0-0.1,0v0c-5.1-0.1-9.3-4.2-9.3-9.4V9.5c0-3.3,2.7-6,6-6h12.5c1.5,0,3.1,0.6,4.2,1.7
	l4.9,4.9c0.2,0.2,0.4,0.3,0.6,0.3h19.2c3.3,0,6,2.7,6,6v3.5h-5v-3.5c0-0.5-0.4-1-1-1H28.3c-1.5,0-3.1-0.6-4.2-1.7l-4.9-4.9
	c-0.2-0.2-0.4-0.3-0.6-0.3H6.1c-0.5,0-1,0.4-1,1V51c0,2.4,1.9,4.4,4.4,4.4c2.4,0,4.3-2,4.3-4.4V30.3c0-3.3,2.7-6,6-6h38
	c3.3,0,6,2.7,6,6v24.1C63.8,57.7,61.1,60.4,57.8,60.4z M17.7,55.4h40.1c0.5,0,1-0.4,1-1V30.3c0-0.5-0.4-1-1-1h-38c-0.5,0-1,0.4-1,1
	V51C18.8,52.6,18.4,54.1,17.7,55.4z"/>
</svg>
