<?xml version="1.0" encoding="utf-8"?>
<!-- Generator: Adobe Illustrator 27.8.1, SVG Export Plug-In . SVG Version: 6.00 Build 0)  -->
<svg version="1.1" id="Layer_1" xmlns="http://www.w3.org/2000/svg" xmlns:xlink="http://www.w3.org/1999/xlink" x="0px" y="0px"
	 width="64px" height="64px" viewBox="0 0 64 64" style="enable-background:new 0 0 64 64;" xml:space="preserve">
<style type="text/css">
	.st0{fill:#FFFFFF;}
</style>
<path class="st0" d="M56.3,13.4L36.1,1.8c-1.3-0.7-2.7-1.1-4-1.1S29.3,1,28,1.8L7.8,13.5c-1.1,0.6-2,1.4-2.6,2.4c0,0,0,0,0,0
	c-0.2,0.2-0.3,0.5-0.5,0.8c-0.6,1.1-0.9,2.4-0.9,3.7v23.3c0,2.8,1.5,5.5,4,6.9l20.1,11.6c1.3,0.7,2.7,1.1,4,1.1s2.8-0.4,4-1.1
	l20.3-11.7c2.5-1.4,4-4,4-7V20.3C60.3,17.5,58.8,14.8,56.3,13.4z M30,56.1c0,1.2-1.3,2-2.4,1.4C22.3,54.4,9.8,47.2,9.8,47.2
	c-1.2-0.7-2-2-2-3.5c0,0,0-14.4,0-20.6c0-1.2,1.3-2,2.4-1.4l19,11c0.5,0.3,0.8,0.8,0.8,1.4V56.1z M31.2,29.2l-18.9-11
	c-1.1-0.6-1.1-2.2,0-2.8L30,5.2c1.3-0.7,2.8-0.7,4.1,0l17.8,10.2c1.1,0.6,1.1,2.2,0,2.8l-19.1,11C32.3,29.5,31.7,29.5,31.2,29.2z
	 M56.3,43.6c0,1.4-0.8,2.8-2,3.5L36.4,57.4C35.3,58,34,57.2,34,56V34.1c0-0.6,0.3-1.1,0.8-1.4l19.1-11c1.1-0.6,2.4,0.1,2.4,1.4V43.6
	z"/>
</svg>
