<?xml version="1.0" encoding="utf-8"?>
<!-- Generator: Adobe Illustrator 27.8.1, SVG Export Plug-In . SVG Version: 6.00 Build 0)  -->
<svg version="1.1" id="Layer_1" xmlns="http://www.w3.org/2000/svg" xmlns:xlink="http://www.w3.org/1999/xlink" x="0px" y="0px"
	 width="64px" height="64px" viewBox="0 0 64 64" style="enable-background:new 0 0 64 64;" xml:space="preserve">
<style type="text/css">
	.st0{fill:#FFFFFF;}
</style>
<path class="st0" d="M39.8,60.1l-4.2,2.4c-0.7,0.4-1.2,0.7-1.8,0.9c-0.2,0.1-0.4,0.1-0.6,0.2c-0.4,0.1-0.8,0.1-1.2,0.1
	c-0.4,0-0.8,0-1.2-0.1c-0.2,0-0.4-0.1-0.6-0.2l0,0c-0.6-0.2-1.1-0.5-1.8-0.9l-4.2-2.4c-1.2-0.7-1.6-2.2-1-3.4c0.7-1.2,2.2-1.6,3.4-1
	l2.9,1.6v-3.2c0-1.4,1.1-2.5,2.5-2.5c1.4,0,2.5,1.1,2.5,2.5v3.2l2.9-1.6c1.2-0.7,2.7-0.2,3.4,1C41.5,57.9,41,59.4,39.8,60.1z"/>
<path class="st0" d="M13.6,48.2l-4.2-2.4l-0.2-0.1c-0.3-0.1-0.5-0.3-0.7-0.4l-0.1-0.1c0-0.2,0-0.7,0-1.4v-4.6c0-1.4-1.1-2.5-2.5-2.5
	s-2.5,1.1-2.5,2.5v4.6c0,1.1,0,1.8,0.1,2.5v0.1c0.2,0.8,0.6,1.6,1.1,2.1c0.6,0.7,1.2,1.1,2.1,1.5l4.3,2.5c0.4,0.2,0.8,0.3,1.3,0.3
	c0.9,0,1.7-0.4,2.2-1.2C15.2,50.5,14.8,48.9,13.6,48.2z"/>
<path class="st0" d="M14.5,21.8c-0.5,0.8-1.3,1.3-2.2,1.3c-0.4,0-0.8-0.1-1.2-0.3l-2.8-1.6v3.1c0,1.4-1.1,2.5-2.5,2.5
	s-2.5-1.1-2.5-2.5v-4.6c0-0.9,0-1.5,0.1-2.1l0,0c0-0.1,0-0.2,0.1-0.3v-0.1c0.2-0.8,0.6-1.6,1.2-2.1c0.1-0.2,0.3-0.3,0.4-0.4
	c0.4-0.4,0.8-0.6,1.2-0.8c0.2-0.1,0.3-0.2,0.6-0.3l4.3-2.5c1.2-0.7,2.7-0.3,3.4,0.9s0.3,2.7-0.9,3.4L10.9,17l2.8,1.6
	C14.7,19.1,15.2,20.6,14.5,21.8z"/>
<path class="st0" d="M25.4,8.2c-0.9,0-1.7-0.5-2.2-1.3c-0.7-1.2-0.2-2.7,1-3.4l4.2-2.4C29.3,0.5,30,0.2,30.8,0s1.6-0.2,2.4,0
	c0.7,0.2,1.5,0.5,2.4,1.1l4.2,2.4c1.2,0.7,1.6,2.2,1,3.4c-0.7,1.2-2.2,1.6-3.4,1l-4.3-2.4c0,0-0.1,0-0.1-0.1c-0.3-0.2-0.7-0.4-1-0.5
	h-0.1C31.8,5,31.6,5,31,5.4c0,0-0.1,0-0.1,0.1l-4.3,2.4C26.2,8.1,25.8,8.2,25.4,8.2z"/>
<path class="st0" d="M58.2,36.7c-1.4,0-2.5,1.1-2.5,2.5v4.6c0,0.8,0,1.2,0,1.4c0,0,0,0-0.1,0.1s-0.2,0.1-0.3,0.2
	c-0.2,0.1-0.4,0.2-0.6,0.4l-4.2,2.4c-1.2,0.7-1.6,2.2-0.9,3.4c0.5,0.8,1.3,1.3,2.2,1.3c0.4,0,0.8-0.1,1.2-0.3l4.3-2.5
	c0.2-0.1,0.4-0.2,0.5-0.3c0.5-0.3,1.1-0.6,1.6-1.2c0.5-0.6,0.9-1.3,1.1-2.1v-0.1c0.2-0.7,0.2-1.4,0.2-2.5v-4.6
	C60.7,37.8,59.6,36.7,58.2,36.7z"/>
<path class="st0" d="M39.8,30.3l-5.3,3v5.9c0,1.4-1.1,2.5-2.5,2.5s-2.5-1.1-2.5-2.5v-5.9l-5.3-3c-1.2-0.7-1.6-2.2-1-3.4
	c0.7-1.2,2.2-1.6,3.4-1l5.4,3l5.4-3c1.2-0.7,2.7-0.2,3.4,1C41.5,28.1,41,29.6,39.8,30.3z"/>
<path class="st0" d="M60.7,19.8v4.6c0,1.4-1.1,2.5-2.5,2.5s-2.5-1.1-2.5-2.5v-3.2l-2.8,1.6c-0.4,0.2-0.8,0.3-1.2,0.3
	c-0.9,0-1.7-0.4-2.2-1.3c-0.7-1.2-0.3-2.7,0.9-3.4l2.7-1.5l-2.7-1.5c-1.2-0.7-1.6-2.2-0.9-3.4c0.7-1.2,2.2-1.6,3.4-0.9l4.4,2.5
	c0.6,0.3,1,0.6,1.5,0.9c0.2,0.2,0.4,0.4,0.6,0.6c0.5,0.6,0.9,1.3,1.1,2.1v0.1c0,0.1,0,0.2,0,0.3l0,0C60.7,18.2,60.7,18.8,60.7,19.8z
	"/>
</svg>
