<?xml version="1.0" encoding="utf-8"?>
<!-- Generator: Adobe Illustrator 27.8.1, SVG Export Plug-In . SVG Version: 6.00 Build 0)  -->
<svg version="1.1" id="Layer_1" xmlns="http://www.w3.org/2000/svg" xmlns:xlink="http://www.w3.org/1999/xlink" x="0px" y="0px"
	 width="64px" height="64px" viewBox="0 0 64 64" style="enable-background:new 0 0 64 64;" xml:space="preserve">
<style type="text/css">
	.st0{fill:#000000;}
</style>
<path class="st0" d="M2.5,14.8c-0.6,0-1.3-0.2-1.8-0.7c-1-1-1-2.6,0-3.5l9.8-9.8c1-1,2.6-1,3.5,0c1,1,1,2.6,0,3.5l-9.8,9.8
	C3.8,14.6,3.1,14.8,2.5,14.8z"/>
<path class="st0" d="M51.7,64c-0.6,0-1.3-0.2-1.8-0.7c-1-1-1-2.6,0-3.5l9.8-9.8c1-1,2.6-1,3.5,0c0.9,1,1,2.6,0,3.5l-9.8,9.8
	C53,63.8,52.3,64,51.7,64z"/>
<path class="st0" d="M2.5,31.2c-0.6,0-1.3-0.2-1.8-0.7c-1-1-1-2.6,0-3.5L26.9,0.7c1-1,2.6-1,3.5,0c1,1,1,2.6,0,3.5L4.3,30.5
	C3.8,31,3.1,31.2,2.5,31.2z"/>
<path class="st0" d="M2.5,47.6c-0.6,0-1.3-0.2-1.8-0.7c-1-1-1-2.6,0-3.5L43.3,0.7c1-1,2.6-1,3.5,0c1,1,1,2.6,0,3.5L4.3,46.9
	C3.8,47.4,3.1,47.6,2.5,47.6z"/>
<path class="st0" d="M2.5,64c-0.6,0-1.3-0.2-1.8-0.7c-1-1-1-2.6,0-3.5l59-59c1-1,2.6-1,3.5,0c1,1,1,2.6,0,3.5l-59,59
	C3.8,63.8,3.1,64,2.5,64z"/>
<path class="st0" d="M18.9,64c-0.6,0-1.3-0.2-1.8-0.7c-1-1-1-2.6,0-3.5l42.6-42.6c1-1,2.6-1,3.5,0c1,1,1,2.6,0,3.5L20.7,63.3
	C20.2,63.8,19.5,64,18.9,64z"/>
<path class="st0" d="M35.3,64c-0.6,0-1.3-0.2-1.8-0.7c-1-1-1-2.6,0-3.5l26.2-26.2c1-1,2.6-1,3.5,0c0.9,1,1,2.6,0,3.5L37.1,63.3
	C36.6,63.8,35.9,64,35.3,64z"/>
</svg>
