<?xml version="1.0" encoding="utf-8"?>
<!-- Generator: Adobe Illustrator 27.8.1, SVG Export Plug-In . SVG Version: 6.00 Build 0)  -->
<svg version="1.1" id="Layer_1" xmlns="http://www.w3.org/2000/svg" xmlns:xlink="http://www.w3.org/1999/xlink" x="0px" y="0px"
	 width="64px" height="64px" viewBox="0 0 64 64" style="enable-background:new 0 0 64 64;" xml:space="preserve">
<style type="text/css">
	.st0{fill:#FFFFFF;}
</style>
<path class="st0" d="M61.4,5h-59C1,5-0.1,3.9-0.1,2.5S1,0,2.4,0h59c1.4,0,2.5,1.1,2.5,2.5S62.8,5,61.4,5z"/>
<path class="st0" d="M61.4,28.9h-59c-1.4,0-2.5-1.1-2.5-2.5s1.1-2.5,2.5-2.5h59c1.4,0,2.5,1.1,2.5,2.5S62.8,28.9,61.4,28.9z"/>
<path class="st0" d="M49.8,17.2H2.5c-1.4,0-2.5-1.1-2.5-2.5s1.1-2.5,2.5-2.5h47.3c1.4,0,2.5,1.1,2.5,2.5S51.2,17.2,49.8,17.2z"/>
<path class="st0" d="M49.8,64H2.5C1.1,64,0,62.9,0,61.5S1.1,59,2.5,59h47.3c1.4,0,2.5,1.1,2.5,2.5S51.2,64,49.8,64z"/>
<path class="st0" d="M56.8,52.7H2.5c-1.4,0-2.5-1.1-2.5-2.5s1.1-2.5,2.5-2.5h54.3c1.4,0,2.5,1.1,2.5,2.5S58.2,52.7,56.8,52.7z"/>
<path class="st0" d="M42.5,40.7h-40c-1.4,0-2.5-1.1-2.5-2.5s1.1-2.5,2.5-2.5h40c1.4,0,2.5,1.1,2.5,2.5S43.9,40.7,42.5,40.7z"/>
</svg>
