<?xml version="1.0" encoding="utf-8"?>
<!-- Generator: Adobe Illustrator 27.8.1, SVG Export Plug-In . SVG Version: 6.00 Build 0)  -->
<svg version="1.1" id="Layer_1" xmlns="http://www.w3.org/2000/svg" xmlns:xlink="http://www.w3.org/1999/xlink" x="0px" y="0px"
	 width="64px" height="64px" viewBox="0 0 64 64" style="enable-background:new 0 0 64 64;" xml:space="preserve">
<style type="text/css">
	.st0{fill:#000000;}
</style>
<path class="st0" d="M58.6,0.1H5.4C2.5,0.1,0.2,2.3,0,5.2v53.5c0,3,2.4,5.4,5.4,5.4h53.2c3,0,5.4-2.4,5.4-5.4V5.5
	C64,2.5,61.6,0.1,58.6,0.1z M7.1,5.1h20.3c1.2,0,2.1,0.9,2.1,2.1v10.5c0,1.2-0.9,2.1-2.1,2.1H7.1c-1.2,0-2.1-0.9-2.1-2.1V7.2
	C5,6,5.9,5.1,7.1,5.1z M44.2,26.8v10.5c0,1.2-0.9,2.1-2.1,2.1H21.9c-1.2,0-2.1-0.9-2.1-2.1V26.8c0-1.2,0.9-2.1,2.1-2.1h20.2
	C43.3,24.7,44.2,25.6,44.2,26.8z M7.1,24.8h5.5c1.2,0,2.1,0.9,2.1,2.1v10.3c0,1.2-0.9,2.1-2.1,2.1H7.1c-1.2,0-2.1-0.9-2.1-2.1V26.9
	C5,25.7,5.9,24.8,7.1,24.8z M27.4,59H7.1C5.9,59,5,58.1,5,56.9V46.4c0-1.2,0.9-2.1,2.1-2.1h20.3c1.2,0,2.1,0.9,2.1,2.1v10.5
	C29.5,58.1,28.6,59,27.4,59z M56.9,59H36.6c-1.2,0-2.1-0.9-2.1-2.1V46.4c0-1.2,0.9-2.1,2.1-2.1h20.3c1.2,0,2.1,0.9,2.1,2.1v10.5
	C59,58.1,58.1,59,56.9,59z M56.9,39.3h-5.6c-1.2,0-2.1-0.9-2.1-2.1V26.9c0-1.2,0.9-2.1,2.1-2.1h5.6c1.2,0,2.1,0.9,2.1,2.1v10.3
	C59,38.4,58.1,39.3,56.9,39.3z M56.9,19.8H36.6c-1.2,0-2.1-0.9-2.1-2.1V7.2c0-1.2,0.9-2.1,2.1-2.1h20.3C58.1,5.1,59,6,59,7.2v10.5
	C59,18.9,58.1,19.8,56.9,19.8z"/>
</svg>
