<?xml version="1.0" encoding="utf-8"?>
<!-- Generator: Adobe Illustrator 27.8.1, SVG Export Plug-In . SVG Version: 6.00 Build 0)  -->
<svg version="1.1" id="Layer_1" xmlns="http://www.w3.org/2000/svg" xmlns:xlink="http://www.w3.org/1999/xlink" x="0px" y="0px"
	 width="64px" height="64px" viewBox="0 0 64 64" style="enable-background:new 0 0 64 64;" xml:space="preserve">
<style type="text/css">
	.st0{fill:#000000;}
</style>
<path class="st0" d="M52.6,15.3H11.5c-1,0-1.7-0.7-1.7-1.7s0.7-1.7,1.7-1.7h41c1,0,1.7,0.7,1.7,1.7S53.5,15.3,52.6,15.3z"/>
<path class="st0" d="M52.6,33.7H11.5c-1,0-1.7-0.7-1.7-1.7s0.7-1.7,1.7-1.7h41c1,0,1.7,0.7,1.7,1.7C54.3,33,53.5,33.7,52.6,33.7z"/>
<path class="st0" d="M44.5,24.8H11.6c-1,0-1.7-0.7-1.7-1.7c0-1,0.7-1.7,1.7-1.7h32.9c1,0,1.7,0.7,1.7,1.7C46.2,24,45.4,24.8,44.5,24.8z"/>
<path class="st0" d="M44.5,52.2H11.6c-1,0-1.7-0.7-1.7-1.7c0-1,0.7-1.7,1.7-1.7h32.9c1,0,1.7,0.7,1.7,1.7C46.2,51.4,45.4,52.2,44.5,52.2z"/>
<path class="st0" d="M39.4,42.9H11.6c-1,0-1.7-0.7-1.7-1.7c0-1,0.7-1.7,1.7-1.7h27.8c1,0,1.7,0.7,1.7,1.7C41.1,42.2,40.4,42.9,39.4,42.9z"/>
<path class="st0" d="M57.9,3.8c1.3,0,2.3,1,2.3,2.3v51.8c0,1.3-1,2.3-2.3,2.3H6.1c-1.3,0-2.3-1-2.3-2.3V6.1c0-1.3,1-2.3,2.3-2.3H57.9z M5.5,0
	C2.5,0,0,2.5,0,5.5v53c0,3,2.5,5.5,5.5,5.5h53c3,0,5.5-2.5,5.5-5.5v-53c0-3-2.5-5.5-5.5-5.5H5.5z"/>
</svg>
