<?xml version="1.0" encoding="utf-8"?>
<!-- Generator: Adobe Illustrator 27.8.1, SVG Export Plug-In . SVG Version: 6.00 Build 0)  -->
<svg version="1.1" id="Layer_1" xmlns="http://www.w3.org/2000/svg" xmlns:xlink="http://www.w3.org/1999/xlink" x="0px" y="0px"
	 width="64px" height="64px" viewBox="0 0 64 64" style="enable-background:new 0 0 64 64;" xml:space="preserve">
<style type="text/css">
	.st0{fill:#FFFFFF;}
</style>
<path class="st0" d="M58.6,0H5.4C2.5,0,0.2,2.2,0,5.1v53.5c0,3,2.4,5.4,5.4,5.4h53.2c3,0,5.4-2.4,5.4-5.4V5.4C64,2.4,61.6,0,58.6,0z
	 M44.5,52.2H11.6c-1,0-1.7-0.7-1.7-1.7s0.7-1.7,1.7-1.7h32.9c1,0,1.7,0.7,1.7,1.7S45.4,52.2,44.5,52.2z M9.9,41.2
	c0-1,0.7-1.7,1.7-1.7h27.8c1,0,1.7,0.7,1.7,1.7c0,1-0.7,1.7-1.7,1.7H11.6C10.6,42.9,9.9,42.2,9.9,41.2z M52.6,33.7h-41
	c-1,0-1.8-0.7-1.8-1.7s0.7-1.7,1.8-1.7h41c1,0,1.7,0.7,1.7,1.7C54.3,33,53.5,33.7,52.6,33.7z M9.9,23c0-1,0.7-1.7,1.7-1.7h32.9
	c1,0,1.7,0.7,1.7,1.7s-0.8,1.7-1.7,1.7H11.6C10.6,24.8,9.9,24,9.9,23z M52.6,15.3h-41c-1,0-1.8-0.7-1.8-1.7s0.7-1.7,1.8-1.7h41
	c1,0,1.7,0.7,1.7,1.7S53.5,15.3,52.6,15.3z"/>
</svg>
