<?xml version="1.0" encoding="utf-8"?>
<!-- Generator: Adobe Illustrator 27.8.1, SVG Export Plug-In . SVG Version: 6.00 Build 0)  -->
<svg version="1.1" id="Layer_1" xmlns="http://www.w3.org/2000/svg" xmlns:xlink="http://www.w3.org/1999/xlink" x="0px" y="0px"
	 width="64px" height="64px" viewBox="0 0 64 64" style="enable-background:new 0 0 64 64;" xml:space="preserve">
<style type="text/css">
	.st0{fill:#FFFFFF;}
</style>
<path class="st0" d="M61.4,7.2L50,0.8c-1.6-1-3.8-1-5.4,0L33.4,7.3c-0.9,0.4-1.6,1.2-2,2.1c-0.5,0.9-0.7,1.8-0.7,2.6v13
	c0,1.8,1,3.6,2.6,4.6l11.3,6.5c0.8,0.5,1.8,0.8,2.7,0.8s1.9-0.3,2.7-0.7l11.4-6.6c1.7-0.8,2.7-2.6,2.7-4.6V11.8
	C64,10,63,8.2,61.4,7.2z M35.2,26.4c-0.5-0.3-0.8-0.8-0.8-1.3v-10c0-0.7,0.8-1.2,1.4-0.8l9,5.3c0.3,0.2,0.5,0.5,0.5,0.8l0.1,10.2
	c0,0.7-0.8,1.2-1.4,0.8L35.2,26.4z M46.7,16l-9-5.2c-0.6-0.4-0.6-1.3,0-1.6L46.5,4l0,0c0.2-0.1,0.4-0.2,0.7-0.2S47.8,3.9,48,4l9,5.1
	c0.6,0.4,0.6,1.3,0,1.6L47.7,16C47.4,16.2,47,16.2,46.7,16z M60.2,24.9c0,0.5-0.2,1-0.7,1.3l-8.8,5.1c-0.6,0.4-1.4-0.1-1.4-0.8V20.1
	c0-0.3,0.2-0.7,0.5-0.8l9-5.2c0.6-0.4,1.4,0.1,1.4,0.8L60.2,24.9z"/>
<path class="st0" d="M30.7,34.3l-11.4-6.4c-1.6-1-3.8-1-5.4,0L2.7,34.4c-0.9,0.4-1.6,1.2-2,2.1C0.1,37.3,0,38.3,0,39.1v13
	c0,1.8,1,3.6,2.6,4.6l11.3,6.5c0.8,0.5,1.8,0.8,2.7,0.8s1.9-0.3,2.7-0.7l11.4-6.6c1.7-0.8,2.7-2.6,2.7-4.6V38.9
	C33.2,37.1,32.2,35.3,30.7,34.3z M4.5,53.5c-0.5-0.3-0.8-0.8-0.8-1.3v-10c0-0.7,0.8-1.2,1.4-0.8l9,5.3c0.3,0.2,0.5,0.5,0.5,0.8
	l0.1,10.2c0,0.7-0.8,1.2-1.4,0.8L4.5,53.5z M16,43.1l-9-5.2c-0.6-0.4-0.6-1.3,0-1.6l8.8-5.2l0,0c0.2-0.1,0.4-0.2,0.7-0.2
	s0.6,0.1,0.8,0.2l9,5.1c0.6,0.4,0.6,1.3,0,1.6l-9.3,5.3C16.6,43.3,16.3,43.3,16,43.1z M29.5,52c0,0.5-0.2,1-0.7,1.3L20,58.4
	c-0.6,0.4-1.4-0.1-1.4-0.8V47.2c0-0.3,0.2-0.7,0.5-0.8l9-5.2c0.6-0.4,1.4,0.1,1.4,0.8L29.5,52z"/>
<path class="st0" d="M9.6,11.7c1.9-2,4.1-3.7,6.6-5c0.2-0.1,0.5,0,0.6,0.3l0.4,1.5c0.2,0.6,1,0.9,1.5,0.5l6.9-5.2
	c0.7-0.5,0.4-1.5-0.4-1.7l-8.9-1.9c-0.7-0.1-1.3,0.5-1.1,1.2l0.5,1.7c0.1,0.2,0,0.4-0.2,0.5C12.4,5,9.7,7,7.3,9.5
	C3.7,13.3,1.1,18.2,0,23.7c-0.1,0.5,0.3,1,0.8,1.1L2,25c0.5,0.1,1-0.3,1.1-0.8C4.1,19.4,6.4,15.1,9.6,11.7z"/>
<path class="st0" d="M54.4,52.4c-1.9,2-4.1,3.7-6.6,5c-0.2,0.1-0.5,0-0.6-0.3l-0.4-1.5c-0.2-0.6-1-0.9-1.5-0.5l-6.9,5.2
	c-0.7,0.5-0.4,1.5,0.4,1.7l8.9,1.9c0.7,0.1,1.3-0.5,1.1-1.2L48.3,61c-0.1-0.2,0-0.4,0.2-0.5c3-1.5,5.8-3.6,8.1-6.1
	c3.6-3.8,6.2-8.7,7.3-14.2c0.1-0.5-0.3-1-0.8-1.1L62,39c-0.5-0.1-1,0.3-1.1,0.8C59.9,44.7,57.6,49,54.4,52.4z"/>
</svg>
