<?xml version="1.0" encoding="utf-8"?>
<!-- Generator: Adobe Illustrator 27.8.1, SVG Export Plug-In . SVG Version: 6.00 Build 0)  -->
<svg version="1.1" id="Layer_1" xmlns="http://www.w3.org/2000/svg" xmlns:xlink="http://www.w3.org/1999/xlink" x="0px" y="0px"
	 width="64px" height="64px" viewBox="0 0 64 64" style="enable-background:new 0 0 64 64;" xml:space="preserve">
<style type="text/css">
	.st0{fill:#000000;}
</style>
<path class="st0" d="M60,12.4H3.8c-1.6,0-2.5-1.8-1.6-3.1C3.7,7,6.6,3.1,6.6,3.1c1.3-1.9,3.4-3,5.6-3h39.5c2.3,0,4.4,1.1,5.6,3
	c0,0,2.8,3.9,4.3,6.1C62.5,10.6,61.6,12.4,60,12.4z"/>
<path class="st0" d="M61,16.6H31.8v3.8c0,1.3-1,2.3-2.3,2.3h-0.6c-1.3,0-2.3-1.1-2.3-2.3v-3.8H3c-1.6,0-2.8,1.3-2.8,2.8v36.3
	c0,4.5,3.7,8.1,8.1,8.1h47.5c4.5,0,8.1-3.7,8.1-8.1V19.4C63.9,17.8,62.6,16.6,61,16.6z M31.8,50.6c0,1.3-1,2.3-2.3,2.3h-0.6
	c-1.3,0-2.3-1-2.3-2.3v-4.1c0-1.3,1-2.4,2.3-2.4h0.6c1.3,0,2.3,1.1,2.3,2.4V50.6z M31.8,35.5c0,1.3-1,2.3-2.3,2.3h-0.6
	c-1.3,0-2.3-1-2.3-2.3v-4.1c0-1.3,1-2.3,2.3-2.3h0.6c1.3,0,2.3,1,2.3,2.3V35.5z M37.3,58.5c0,1.3-1,2.4-2.3,2.4h-0.6
	c-1.3,0-2.3-1-2.3-2.4v-4.1c0-1.3,1-2.3,2.3-2.3H35c1.3,0,2.3,1,2.3,2.3V58.5z M37.3,43.2c0,1.3-1,2.3-2.3,2.3h-0.6
	c-1.3,0-2.3-1-2.3-2.3v-4.1c0-1.3,1-2.4,2.3-2.4H35c1.3,0,2.3,1.1,2.3,2.4V43.2z M37.3,27.9c0,1.3-1,2.4-2.3,2.4h-0.6
	c-1.3,0-2.3-1-2.3-2.4v-4.1c0-1.3,1-2.3,2.3-2.3H35c1.3,0,2.3,1,2.3,2.3V27.9z"/>
</svg>
