<?xml version="1.0" encoding="utf-8"?>
<!-- Generator: Adobe Illustrator 27.8.1, SVG Export Plug-In . SVG Version: 6.00 Build 0)  -->
<svg version="1.1" id="Layer_1" xmlns="http://www.w3.org/2000/svg" xmlns:xlink="http://www.w3.org/1999/xlink" x="0px" y="0px"
	 width="64px" height="64px" viewBox="0 0 64 64" style="enable-background:new 0 0 64 64;" xml:space="preserve">
<style type="text/css">
	.st0{fill:#FFFFFF;}
</style>
<path class="st0" d="M62.7,10.8L57.6,3c-1.3-1.9-3.4-3-5.6-3H12.2C9.8,0,7.7,1.1,6.5,3l-5.1,7.7C0.5,12.1,0,13.7,0,15.3v40.6
	C0,60.4,3.7,64,8.1,64h47.7c4.5,0,8.1-3.6,8.1-8.1V15.3C64.1,13.7,63.6,12.2,62.7,10.8z M10.4,4.4c0.3-0.5,0.9-0.8,1.6-0.8h40.2
	c0.6,0,1.1,0.3,1.6,0.8l3.6,5.2c0.5,0.7,0,1.7-0.9,1.7H7.7c-0.8,0-1.4-0.9-0.9-1.7L10.4,4.4z M60.1,55.7c0,2.3-1.9,4.2-4.2,4.2H8.4
	c-2.3,0-4.2-1.9-4.2-4.2V18.8c0-1.9,1.6-3.3,3.3-3.3h49.2c1.9,0,3.4,1.6,3.4,3.3V55.7z"/>
<path class="st0" d="M29.5,22.8h-0.6c-1.3,0-2.3-1-2.3-2.3v-4.1c0-1.3,1-2.3,2.3-2.3h0.6c1.3,0,2.3,1,2.3,2.3v4.1
	C31.8,21.7,30.8,22.8,29.5,22.8z"/>
<path class="st0" d="M29.5,37.9h-0.6c-1.3,0-2.3-1-2.3-2.3v-4.1c0-1.3,1-2.3,2.3-2.3h0.6c1.3,0,2.3,1,2.3,2.3v4.1
	C31.8,36.8,30.8,37.9,29.5,37.9z"/>
<path class="st0" d="M29.5,53h-0.6c-1.3,0-2.3-1-2.3-2.3v-4.1c0-1.3,1-2.3,2.3-2.3h0.6c1.3,0,2.3,1,2.3,2.3v4.1
	C31.8,51.9,30.8,53,29.5,53z"/>
<path class="st0" d="M35,30.3h-0.6c-1.3,0-2.3-1-2.3-2.3v-4.1c0-1.3,1-2.3,2.3-2.3H35c1.3,0,2.3,1,2.3,2.3V28
	C37.3,29.2,36.2,30.3,35,30.3z"/>
<path class="st0" d="M35,45.5h-0.6c-1.3,0-2.3-1-2.3-2.3v-4.1c0-1.3,1-2.3,2.3-2.3H35c1.3,0,2.3,1,2.3,2.3v4.1
	C37.3,44.5,36.2,45.5,35,45.5z"/>
<path class="st0" d="M35,60.8h-0.6c-1.3,0-2.3-1-2.3-2.3v-4.1c0-1.3,1-2.3,2.3-2.3H35c1.3,0,2.3,1,2.3,2.3v4.1
	C37.3,59.8,36.2,60.8,35,60.8z"/>
</svg>
