<?xml version="1.0" encoding="utf-8"?>
<!-- Generator: Adobe Illustrator 27.8.1, SVG Export Plug-In . SVG Version: 6.00 Build 0)  -->
<svg version="1.1" id="Layer_1" xmlns="http://www.w3.org/2000/svg" xmlns:xlink="http://www.w3.org/1999/xlink" x="0px" y="0px"
	 width="64px" height="64px" viewBox="0 0 64 64" style="enable-background:new 0 0 64 64;" xml:space="preserve">
<style type="text/css">
	.st0{fill:#000000;}
</style>
<path class="st0"  d="M61,28H3c-1.6,0-3,1.3-3,2.8v26.5C0,61,3.2,64,7,64h50c3.8,0,7-3,7-6.7V30.8C64,29.3,62.7,28,61,28z M34.5,45v4.8
	c0,1.3-1.1,2.4-2.5,2.4s-2.5-1.1-2.5-2.4V45c-1.6-0.8-2.6-2.4-2.6-4.3c0-2.7,2.3-4.9,5.1-4.9s5.1,2.2,5.1,4.9
	C37.1,42.5,36.1,44.1,34.5,45z"/>
<path class="st0"  d="M57,0H7C3.2,0,0,3.2,0,7v12.2c0,1.6,1.3,3,3,3H61c1.6,0,3-1.3,3-3V7C64,3.2,60.8,0,57,0z"/>
</svg>
