<?xml version="1.0" encoding="utf-8"?>
<!-- Generator: Adobe Illustrator 27.8.1, SVG Export Plug-In . SVG Version: 6.00 Build 0)  -->
<svg version="1.1" id="Layer_1" xmlns="http://www.w3.org/2000/svg" xmlns:xlink="http://www.w3.org/1999/xlink" x="0px" y="0px"
	 width="64px" height="64px" viewBox="0 0 64 64" style="enable-background:new 0 0 64 64;" xml:space="preserve">
<style type="text/css">
	.st0{fill:#FFFFFF;}
</style>
<path class="st0" d="M37.1,39.6c0,1.9-1.1,3.6-2.6,4.5v5c0,1.4-1.1,2.5-2.5,2.5c-1.4,0-2.5-1.1-2.5-2.5v-5c-1.6-0.9-2.6-2.5-2.6-4.5
	c0-2.8,2.3-5.1,5.1-5.1S37.1,36.8,37.1,39.6z"/>
<path class="st0" d="M56,0H8C3.6,0,0,3.6,0,8v48c0,4.4,3.6,8,8,8h48c4.4,0,8-3.6,8-8V8C64,3.6,60.4,0,56,0z M4,8c0-2.2,1.8-4,4-4h48
	c2.2,0,4,1.8,4,4v12.5c0,1.3-1.1,2.4-2.4,2.4H6.4c-1.3,0-2.4-1.1-2.4-2.4V8z M60,56c0,2.2-1.8,4-4,4H8c-2.2,0-4-1.8-4-4V29.7
	c0-1.3,1.1-2.4,2.4-2.4h51.2c1.3,0,2.4,1.1,2.4,2.4C60,29.7,60,56,60,56z"/>
</svg>
