<?xml version="1.0" encoding="utf-8"?>
<!-- Generator: Adobe Illustrator 27.8.1, SVG Export Plug-In . SVG Version: 6.00 Build 0)  -->
<svg version="1.1" id="Layer_1" xmlns="http://www.w3.org/2000/svg" xmlns:xlink="http://www.w3.org/1999/xlink" x="0px" y="0px"
	 width="64px" height="64px" viewBox="0 0 64 64" style="enable-background:new 0 0 64 64;" xml:space="preserve">
<style type="text/css">
	.st0{fill:#000000;}
</style>
<path class="st0" d="M58.6,0.1H5.4C2.5,0.1,0.2,2.3,0,5.2v53.5c0,3,2.4,5.4,5.4,5.4h53.2c3,0,5.4-2.4,5.4-5.4V5.5
	C64,2.5,61.6,0.1,58.6,0.1z M6,3.9h21.6c1.3,0,2.2,0.9,2.2,2.2v11.3c0,1.3-0.9,2.2-2.2,2.2H6c-1.3,0-2.2-0.9-2.2-2.2V6.1
	C3.8,4.8,4.7,3.9,6,3.9z M45,25.6v12.3c0,1.3-0.9,2.2-2.2,2.2H21.5c-1.3,0-2.2-0.9-2.2-2.2V25.6c0-1.3,0.9-2.2,2.2-2.2h21.4
	C44.1,23.4,45,24.3,45,25.6z M6,23.5h7c1.3,0,2.2,0.9,2.2,2.2v12.1c0,1.3-0.9,2.2-2.2,2.2H6c-1.3,0-2.2-0.9-2.2-2.2V25.7
	C3.8,24.4,4.7,23.5,6,23.5z M27.6,60.2H6c-1.3,0-2.2-0.9-2.2-2.2V46c0-1.3,0.9-2.2,2.2-2.2h21.6c1.3,0,2.2,0.9,2.2,2.2v12
	C29.8,59.3,28.8,60.2,27.6,60.2z M58,60.2H36.4c-1.3,0-2.2-0.9-2.2-2.2V46c0-1.3,0.9-2.2,2.2-2.2H58c1.3,0,2.2,0.9,2.2,2.2v12
	C60.2,59.3,59.3,60.2,58,60.2z M58,39.9h-6.8c-1.3,0-2.2-0.9-2.2-2.2v-12c0-1.3,0.9-2.2,2.2-2.2H58c1.3,0,2.2,0.9,2.2,2.2v12.1
	C60.2,39,59.3,39.9,58,39.9z M58,19.6H36.4c-1.3,0-2.2-0.9-2.2-2.2V6.1c0-1.3,0.9-2.2,2.2-2.2H58c1.3,0,2.2,0.9,2.2,2.2v11.3
	C60.2,18.6,59.3,19.6,58,19.6z"/>
</svg>
