<?xml version="1.0" encoding="utf-8"?>
<!-- Generator: Adobe Illustrator 27.8.1, SVG Export Plug-In . SVG Version: 6.00 Build 0)  -->
<svg version="1.1" id="Layer_1" xmlns="http://www.w3.org/2000/svg" xmlns:xlink="http://www.w3.org/1999/xlink" x="0px" y="0px"
	 width="64px" height="64px" viewBox="0 0 64 64" style="enable-background:new 0 0 64 64;" xml:space="preserve">
<style type="text/css">
	.st0{fill:#000000;}
</style>
<path class="st0" d="M0.5,25.9c0-1.4,1.1-2.5,2.5-2.5h6.6c1.4,0,2.5,1.1,2.5,2.5v12.4c0,1.4-1.1,2.5-2.5,2.5H3
	c-1.4,0-2.5-1.1-2.5-2.5V25.9z"/>
<path class="st0" d="M29.4,3.1v12.4c0,1.4-1.1,2.5-2.5,2.5h-24c-1.4,0-2.5-1.1-2.5-2.5V3.1c0-1.4,1.1-2.5,2.5-2.5h24
	C28.3,0.6,29.4,1.6,29.4,3.1z"/>
<path class="st0" d="M29.4,48.5v12.4c0,1.4-1.1,2.5-2.5,2.5h-24c-1.4,0-2.5-1.1-2.5-2.5V48.5c0-1.4,1.1-2.5,2.5-2.5h24
	C28.3,46,29.4,47.1,29.4,48.5z"/>
<path class="st0" d="M20,23.4H44c1.4,0,2.5,1.1,2.5,2.5v12.4c0,1.4-1.1,2.5-2.5,2.5H20c-1.4,0-2.5-1.1-2.5-2.5V25.8
	C17.6,24.4,18.6,23.4,20,23.4z"/>
<path class="st0" d="M63.5,15.5c0,1.4-1.1,2.5-2.5,2.5H37.2c-1.4,0-2.5-1.1-2.5-2.5V3.1c0-1.4,1.1-2.5,2.5-2.5H61
	c1.4,0,2.5,1.1,2.5,2.5C63.5,3.1,63.5,15.5,63.5,15.5z"/>
<path class="st0" d="M63.5,25.9v12.4c0,1.4-1.1,2.5-2.5,2.5h-6.7c-1.4,0-2.5-1.1-2.5-2.5V25.9c0-1.4,1.1-2.5,2.5-2.5H61
	C62.4,23.3,63.5,24.4,63.5,25.9z"/>
<path class="st0" d="M63.5,61c0,1.4-1.1,2.5-2.5,2.5H37.2c-1.4,0-2.5-1.1-2.5-2.5V48.6c0-1.4,1.1-2.5,2.5-2.5H61
	c1.4,0,2.5,1.1,2.5,2.5C63.5,48.6,63.5,61,63.5,61z"/>
</svg>
