<?xml version="1.0" encoding="utf-8"?>
<!-- Generator: Adobe Illustrator 27.8.1, SVG Export Plug-In . SVG Version: 6.00 Build 0)  -->
<svg version="1.1" id="Layer_1" xmlns="http://www.w3.org/2000/svg" xmlns:xlink="http://www.w3.org/1999/xlink" x="0px" y="0px"
	 viewBox="0 0 64 64" enable-background="new 0 0 64 64" xml:space="preserve">
<path fill="#000000" d="M61.4,7.2L50,0.8c-1.6-1-3.8-1-5.4,0L33.4,7.3c-0.9,0.4-1.6,1.1-2,2c-0.1,0.1-0.1,0.3-0.2,0.4c-0.3,0.7-0.5,1.5-0.5,2.3v13
	c0,1.8,1,3.6,2.6,4.6l11.3,6.5c0.8,0.5,1.8,0.8,2.7,0.8s1.9-0.3,2.7-0.7l11.4-6.6c1.7-0.8,2.7-2.6,2.7-4.6V11.8
	C64,10,63,8.2,61.4,7.2z M45.4,32.2l-10.2-5.8c-0.5-0.3-0.8-0.8-0.8-1.3V13.4l10.9,6.4L45.4,32.2L45.4,32.2z M47.2,16.3L36.3,10
	l10.2-6l0,0c0.2-0.1,0.4-0.2,0.7-0.2S47.8,3.9,48,4l10.4,5.9L47.2,16.3z M60.2,24.9c0,0.5-0.2,1-0.7,1.3l-10.2,5.9V19.6l10.9-6.3
	C60.2,13.3,60.2,24.9,60.2,24.9z"/>
<path fill="#000000" d="M30.7,34.4l-11.4-6.5c-1.6-1-3.8-1-5.4,0L2.7,34.4C2,34.8,1.5,35.3,1,35.9c-0.3,0.3-0.5,0.7-0.6,1.1l0,0l0,0
	C0.1,37.6,0,38.3,0,39.1v13.1c0,1.8,1,3.6,2.6,4.6l11.3,6.5c0.8,0.5,1.8,0.8,2.7,0.8c0.9,0,1.9-0.3,2.7-0.7l11.4-6.6
	c1.7-0.8,2.7-2.6,2.7-4.6V39C33.3,37.1,32.4,35.4,30.7,34.4z M14.8,59.3L4.6,53.5c-0.4-0.3-0.8-0.8-0.8-1.3V40.4l10.9,6.4v12.5H14.8
	z M16.5,43.4L5.7,37.1l10.1-5.9l0,0c0.2-0.1,0.4-0.2,0.7-0.2s0.6,0.1,0.8,0.2L27.6,37L16.5,43.4z M29.5,52.1c0,0.5-0.2,1-0.7,1.3
	l-10.2,5.9V46.6l10.9-6.3C29.5,40.3,29.5,52.1,29.5,52.1z"/>
<path fill="#000000" d="M9.6,11.7c1.9-2,4.1-3.7,6.6-5c0.2-0.1,0.5,0,0.6,0.3l0.4,1.5c0.2,0.6,1,0.9,1.5,0.5l6.9-5.2c0.7-0.5,0.4-1.5-0.4-1.7
	l-8.9-1.9c-0.7-0.1-1.3,0.5-1.1,1.2l0.5,1.7c0.1,0.2,0,0.4-0.2,0.5C12.4,5,9.7,7,7.3,9.5C3.7,13.3,1.1,18.2,0,23.7
	c-0.1,0.5,0.3,1,0.8,1.1L2,25c0.5,0.1,1-0.3,1.1-0.8C4.1,19.4,6.4,15.1,9.6,11.7z"/>
<path fill="#000000" d="M54.4,52.4c-1.9,2-4.1,3.7-6.6,5c-0.2,0.1-0.5,0-0.6-0.3l-0.4-1.5c-0.2-0.6-1-0.9-1.5-0.5l-6.9,5.2
	c-0.7,0.5-0.4,1.5,0.4,1.7l8.9,1.9c0.7,0.1,1.3-0.5,1.1-1.2l-0.5-1.7c-0.1-0.2,0-0.4,0.2-0.5c3-1.5,5.8-3.6,8.1-6.1
	c3.6-3.8,6.2-8.7,7.3-14.2c0.1-0.5-0.3-1-0.8-1.1L62,39c-0.5-0.1-1,0.3-1.1,0.8C59.9,44.7,57.6,49,54.4,52.4z"/>
</svg>
