<?xml version="1.0" encoding="utf-8"?>
<!-- Generator: Adobe Illustrator 27.8.1, SVG Export Plug-In . SVG Version: 6.00 Build 0)  -->
<svg version="1.1" id="Layer_1" xmlns="http://www.w3.org/2000/svg" xmlns:xlink="http://www.w3.org/1999/xlink" x="0px" y="0px"
	 viewBox="0 0 64 64" enable-background="new 0 0 64 64" xml:space="preserve">
<g>
	<path fill="#ffffff" d="M2.6,38.5l12,7.1c0.5,0.3,1,1,1,1.7V61c0,0.6-0.8,1.1-1.6,0.8L2.2,55c-0.5-0.3-1-1-1-1.7v-14C1,38.7,1.9,38.2,2.6,38.5z"/>
	<path fill="#ffffff" d="M29.7,36.7l-12.3,7.2c-0.5,0.3-1.3,0.3-1.9,0l-12-7c-0.7-0.3-0.7-1.3,0-1.7l12-7.2l0,0c0.2-0.2,0.5-0.2,0.8-0.2
		c0.3,0,0.7,0.2,1,0.3l12.2,6.7C30.4,35.4,30.4,36.2,29.7,36.7z"/>
	<path fill="#ffffff" d="M30.7,38.5c0.6-0.3,1.6,0.2,1.6,0.8v13.8c0,0.6-0.3,1.3-0.8,1.7l-12.3,7.1c-0.6,0.3-1.6-0.2-1.6-0.8V47.1
		c0-0.6,0.3-1.3,1-1.7L30.7,38.5z"/>
</g>
<g>
	<path fill="#ffffff" d="M33.1,11.7l12,7.1c0.5,0.3,1,1,1,1.7v13.8c0,0.6-0.8,1.1-1.6,0.8l-11.9-6.8c-0.5-0.3-1-1-1-1.7V12.6
		C31.6,11.9,32.5,11.4,33.1,11.7z"/>
	<path fill="#ffffff" d="M60.3,9.9l-12.3,7.2c-0.5,0.3-1.3,0.3-1.9,0l-12-7c-0.7-0.3-0.7-1.3,0-1.7l12-7.2l0,0c0.2-0.2,0.5-0.2,0.8-0.2
		c0.3,0,0.7,0.2,1,0.3l12.2,6.7C61,8.6,61,9.4,60.3,9.9z"/>
	<path fill="#ffffff" d="M61.2,11.7c0.6-0.3,1.6,0.2,1.6,0.8v13.8c0,0.6-0.3,1.3-0.8,1.7L49.7,35c-0.6,0.3-1.6-0.2-1.6-0.8V20.3
		c0-0.6,0.3-1.3,1-1.7L61.2,11.7z"/>
</g>
<path fill="#ffffff" d="M9.8,11.6c1.9-2,4.1-3.7,6.6-5c0.2-0.1,0.5,0,0.6,0.3l0.4,1.5c0.2,0.6,1,0.9,1.5,0.5l6.9-5.2c0.7-0.5,0.4-1.5-0.4-1.7
	L16.5,0c-0.7-0.1-1.3,0.5-1.1,1.2l0.5,1.7c0.1,0.2,0,0.4-0.2,0.5c-3,1.5-5.8,3.6-8.1,6.1c-3.6,3.8-6.2,8.7-7.3,14.2
	c-0.1,0.5,0.3,1,0.8,1.1L2.2,25c0.5,0.1,1-0.3,1.1-0.8C4.3,19.3,6.6,15,9.8,11.6z"/>
<path fill="#ffffff" d="M54.6,52.4c-1.9,2-4.1,3.7-6.6,5c-0.2,0.1-0.5,0-0.6-0.3L47,55.7c-0.2-0.6-1-0.9-1.5-0.5l-6.9,5.2c-0.7,0.5-0.4,1.5,0.4,1.7
	l8.9,1.9c0.7,0.1,1.3-0.5,1.1-1.2l-0.5-1.7c-0.1-0.2,0-0.4,0.2-0.5c3-1.5,5.8-3.6,8.1-6.1c3.6-3.8,6.2-8.7,7.3-14.2
	c0.1-0.5-0.3-1-0.8-1.1L62.2,39c-0.5-0.1-1,0.3-1.1,0.8C60.1,44.7,57.8,49,54.6,52.4z"/>
</svg>
