<?xml version="1.0" encoding="utf-8"?>
<!-- Generator: Adobe Illustrator 27.8.1, SVG Export Plug-In . SVG Version: 6.00 Build 0)  -->
<svg version="1.1" id="Layer_1" xmlns="http://www.w3.org/2000/svg" xmlns:xlink="http://www.w3.org/1999/xlink" x="0px" y="0px"
	 viewBox="0 0 64 64" enable-background="new 0 0 64 64" xml:space="preserve">
<path fill="#000000" d="M62.5,10.8l-5.1-7.7c-1.3-1.9-3.4-3-5.6-3H12.2c-2.3,0-4.4,1.1-5.6,3l-5.1,7.7c-0.9,1.3-1.4,2.9-1.4,4.5
	v40.4c0,4.5,3.7,8.1,8.1,8.1h47.5c4.5,0,8.1-3.6,8.1-8.1V15.3C63.9,13.7,63.4,12.2,62.5,10.8z M10.8,5.9c0.3-0.5,0.9-0.8,1.5-0.8
	h39.5c0.6,0,1.1,0.3,1.5,0.8l3.5,5.2H7.3L10.8,5.9z M58.9,55.7c0,1.7-1.4,3.1-3.1,3.1H8.3c-1.7,0-3.1-1.4-3.1-3.1V16.1h53.7V55.7z"
	/>
<path fill="#000000" d="M46.6,39.3c-0.5,0.5-1.1,0.7-1.8,0.7c-0.6,0-1.3-0.2-1.8-0.7l-8.6-8.6v19.7c0,1.4-1.1,2.5-2.5,2.5
	s-2.5-1.1-2.5-2.5V30.7l-8.6,8.6c-1,1-2.6,1-3.5,0c-1-1-1-2.5,0-3.5l10.8-10.8c2.1-2.1,5.5-2.1,7.5,0l10.8,10.8
	C47.6,36.7,47.6,38.3,46.6,39.3z"/>
</svg>
