<?xml version="1.0" encoding="utf-8"?>
<!-- Generator: Adobe Illustrator 27.8.1, SVG Export Plug-In . SVG Version: 6.00 Build 0)  -->
<svg version="1.1" id="Layer_1" xmlns="http://www.w3.org/2000/svg" xmlns:xlink="http://www.w3.org/1999/xlink" x="0px" y="0px"
	 viewBox="0 0 64 64" enable-background="new 0 0 64 64" xml:space="preserve">
<path fill="#000000" d="M60,12.4H3.8c-1.6,0-2.5-1.8-1.6-3.1C3.7,7,6.6,3.1,6.6,3.1c1.3-1.9,3.4-3,5.6-3h39.5c2.3,0,4.4,1.1,5.6,3
	c0,0,2.8,3.9,4.3,6.1C62.5,10.6,61.6,12.4,60,12.4z"/>
<path fill="#000000" d="M61,16.6H3c-1.6,0-2.8,1.3-2.8,2.8v36.3c0,4.5,3.7,8.1,8.1,8.1h47.5c4.5,0,8.1-3.7,8.1-8.1V19.4
	C63.9,17.8,62.6,16.6,61,16.6z M46.6,39.3c-0.5,0.5-1.1,0.7-1.8,0.7c-0.6,0-1.3-0.2-1.8-0.7l-8.6-8.6l0,19.5c0,1.3-0.9,2.5-2.2,2.6
	c-1.5,0.2-2.8-1-2.8-2.5V30.7L21,39.2c-0.9,0.9-2.4,1.1-3.4,0.3c-1.2-0.9-1.2-2.7-0.2-3.7l10.8-10.8c2.1-2.1,5.5-2.1,7.5,0
	l10.8,10.8C47.6,36.7,47.6,38.3,46.6,39.3z"/>
</svg>
