<?xml version="1.0" encoding="utf-8"?>
<!-- Generator: Adobe Illustrator 27.8.1, SVG Export Plug-In . SVG Version: 6.00 Build 0)  -->
<svg version="1.1" id="Layer_1" xmlns="http://www.w3.org/2000/svg" xmlns:xlink="http://www.w3.org/1999/xlink" x="0px" y="0px"
	 viewBox="0 0 120 86" style="enable-background:new 0 0 120 86;" xml:space="preserve">
<style type="text/css">
	.st0{display:none;fill:#231F20;}
	.st1{fill:#ED1C24;}
	.st2{fill:#C62C30;}
</style>
<g>
	<circle class="st0" cx="60" cy="27.7" r="31"/>
	<g>
		<path class="st1" d="M37.1,14.1c3.9-7,11.3-12,19.4-13.2C62.3,0.2,68.2,1.3,72.8,4c0.4,0.8-0.4,1.2-0.8,2
			c-1.6,1.6-2.7,3.5-4.3,5.4c-3.9-1.2-7.8-1.9-11.6-0.8c-4.3,0.8-8.2,3.5-10.5,7C42.5,16.5,39.8,15.3,37.1,14.1z"/>
		<path class="st2" d="M76.3,5.2c0.8-0.8,1.6-1.9,2.7-1.9c2.3,1.6,4.7,3.9,6.2,6.2c-5.8,5.8-12.8,10.9-20.6,13.6
			C67.4,16.5,71.3,10.3,76.3,5.2z"/>
		<path class="st1" d="M75.9,20c2.7-1.6,5-3.5,7.4-5.8c4.3,7.4,4.7,16.3,1.2,24.1c-2.3,5-6.2,9.7-10.9,12c-0.8-2.7-2.3-5.4-3.5-8.2
			c2.7-2.3,5-4.7,6.2-7.8C78.2,30,78.2,24.6,75.9,20z"/>
		<path class="st2" d="M29,23.8c0.4-2.7,1.2-5.8,2.3-8.5c0.8-0.4,1.6,0,2.7,0.4c7.4,2.3,14.4,5.4,19.8,10.5
			C45.6,27.3,37.1,26.9,29,23.8z"/>
		<path class="st1" d="M33.2,27.7c3.1,0.8,5.8,1.2,8.9,1.2c0.8,8.2,7.8,15.9,16.3,16.3c0.4,3.1,0.8,6.2,1.2,9.3
			c-6.2,0-12.4-2.3-17.1-6.6C36.7,43.2,33.6,35.5,33.2,27.7z"/>
		<path class="st2" d="M61.6,33.9c3.5,3.5,5.8,8.2,7.8,12.4c1.6,3.1,2.3,6.6,3.1,10.1c-2.7,1.2-5.8,2.3-8.5,1.9
			C60.8,50.6,60.8,42.1,61.6,33.9z"/>
	</g>
</g>
<g>
	<g>
		<path class="st2" d="M36.7,72.2l-1.8,1c-0.4-0.7-0.9-1-1.6-1c-0.4,0-0.7,0.1-1,0.3C32.1,72.7,32,73,32,73.4c0,0.3,0.1,0.5,0.3,0.7
			s0.4,0.4,0.6,0.5s0.5,0.2,0.8,0.3c0.5,0.1,1,0.3,1.4,0.5c0.4,0.2,0.8,0.4,1.1,0.7c0.3,0.3,0.7,0.7,0.9,1.2c0.2,0.5,0.3,1,0.3,1.7
			c0,0.7-0.3,1.4-0.7,1.9s-0.9,0.9-1.5,1.1c-0.6,0.2-1.2,0.3-1.9,0.3c-0.8,0-1.5-0.2-2.2-0.6c-0.7-0.4-1.3-1.1-1.7-2.2l1.8-1.1
			c0.3,0.6,0.6,1,1,1.3c0.4,0.3,0.8,0.4,1.2,0.4c0.5,0,0.8-0.1,1.1-0.4c0.3-0.3,0.5-0.6,0.5-1c0-0.5-0.1-0.9-0.5-1.2
			c-0.4-0.3-0.8-0.5-1.3-0.6c-2.3-0.6-3.3-1.8-3.3-3.4c0-1.1,0.4-1.9,1.1-2.5c0.7-0.6,1.6-0.9,2.6-0.9C34.9,70,36,70.7,36.7,72.2z"
			/>
		<path class="st2" d="M48,72.1l-1.5,1.4c-0.9-0.9-1.9-1.4-2.9-1.4c-1.1,0-2,0.4-2.6,1.2s-1,1.7-1,2.8c0,1.1,0.3,2,1,2.8
			c0.6,0.8,1.5,1.1,2.6,1.1c1.2,0,2.3-0.5,3.1-1.6l1.6,1.3c-1.4,1.6-2.9,2.4-4.7,2.4c-1.2,0-2.3-0.3-3.1-0.9c-0.9-0.6-1.6-1.3-2-2.2
			C38.1,78,37.9,77,37.9,76c0-1.1,0.2-2.1,0.6-2.9c0.4-0.9,1.1-1.7,2-2.3c0.9-0.6,2-0.9,3.1-0.9C45.4,70,46.8,70.7,48,72.1z"/>
		<path class="st2" d="M56.4,72.2l-1.8,1c-0.4-0.7-0.9-1-1.6-1c-0.4,0-0.7,0.1-1,0.3c-0.3,0.2-0.4,0.5-0.4,0.9
			c0,0.3,0.1,0.5,0.3,0.7s0.4,0.4,0.6,0.5s0.5,0.2,0.8,0.3c0.5,0.1,1,0.3,1.4,0.5c0.4,0.2,0.8,0.4,1.1,0.7c0.3,0.3,0.7,0.7,0.9,1.2
			c0.2,0.5,0.3,1,0.3,1.7c0,0.7-0.3,1.4-0.7,1.9s-0.9,0.9-1.5,1.1c-0.6,0.2-1.2,0.3-1.9,0.3c-0.8,0-1.5-0.2-2.2-0.6
			c-0.7-0.4-1.3-1.1-1.7-2.2l1.8-1.1c0.3,0.6,0.6,1,1,1.3c0.4,0.3,0.8,0.4,1.2,0.4c0.5,0,0.8-0.1,1.1-0.4c0.3-0.3,0.5-0.6,0.5-1
			c0-0.5-0.1-0.9-0.5-1.2c-0.4-0.3-0.8-0.5-1.3-0.6c-2.3-0.6-3.3-1.8-3.3-3.4c0-1.1,0.4-1.9,1.1-2.5c0.7-0.6,1.6-0.9,2.6-0.9
			C54.6,70,55.7,70.7,56.4,72.2z"/>
	</g>
	<g>
		<path class="st2" d="M86.4,77.8c0,1.2-0.4,2.6-1.7,2.6c-1.3,0-1.9-1.6-1.9-2.8c0-1.2,0.4-2.5,1.8-2.5
			C85.9,75.2,86.4,76.7,86.4,77.8z"/>
		<path class="st2" d="M89,67.1H61.7c-0.8,0-1.5,0.7-1.5,1.5v15.9c0,0.8,0.7,1.5,1.5,1.5H89c0.8,0,1.5-0.7,1.5-1.5V68.6
			C90.6,67.8,89.9,67.1,89,67.1z M70.4,82h-2.2v-4.4c0-0.9,0-1.4-0.1-1.7c-0.3-0.5-0.6-0.8-1.2-0.8c-0.7,0-1.3,0.4-1.6,1.1
			c-0.1,0.3-0.2,0.9-0.2,1.6v4.1h-2.2V70.5h2.2v3.7c0.6-0.5,1.7-0.8,2.8-0.8c1.1,0,2,0.7,2.4,2c0.1,0.3,0.1,0.9,0.1,1.6V82z
			 M79.2,81.9h-2V81c-0.7,0.7-1.7,1.1-2.7,1.1c-1.8,0-2.8-1.3-2.8-3.2v-5.2h2.2v3.8c0,1.1,0,1.9,0.1,2.1c0.3,0.5,0.6,0.8,1.3,0.9
			c0.7,0,1.3-0.4,1.6-1.1c0.1-0.3,0.2-1,0.2-2.2v-3.5h2.2V81.9z M85.1,82.1c-0.9,0-1.6-0.3-2.5-0.8V82h-2V70.5h2.2l-0.1,3.7
			c0.5-0.5,1.7-0.8,2.6-0.7c0.2,0,0.5,0,0.6,0.1c1.9,0.4,2.7,2.1,2.8,4.1C88.6,79.7,87.6,81.9,85.1,82.1z"/>
	</g>
</g>
</svg>
